<svg width="967" height="211" viewBox="0 0 967 211" fill="none" xmlns="http://www.w3.org/2000/svg">
<path d="M147.363 164.644C146.891 166.437 146.372 168.514 145.806 170.874C145.334 173.14 145.098 175.311 145.098 177.388C145.098 179.276 145.381 180.881 145.947 182.202C146.514 183.524 147.741 184.185 149.629 184.185C152.178 184.185 155.199 183.288 158.691 181.494C162.279 179.606 166.102 177.152 170.161 174.131C174.22 171.016 178.421 167.476 182.764 163.511C187.106 159.451 191.401 155.298 195.649 151.05C199.897 146.707 203.957 142.365 207.827 138.022C211.698 133.68 215.143 129.621 218.164 125.845L223.403 144.678C217.173 152.985 210.754 160.962 204.146 168.608C197.537 176.255 190.788 183.005 183.896 188.857C177.1 194.71 170.256 199.383 163.364 202.876C156.473 206.369 149.629 208.115 142.832 208.115C138.867 208.115 135.469 207.454 132.637 206.133C129.899 204.906 127.681 203.206 125.981 201.035C124.282 198.77 123.008 196.221 122.158 193.389C121.403 190.462 121.025 187.394 121.025 184.185C121.025 182.957 121.073 181.211 121.167 178.945C121.261 176.68 121.356 174.367 121.45 172.007C121.639 169.552 121.781 167.334 121.875 165.352C122.064 163.369 122.158 162.095 122.158 161.528L71.8896 164.644L48.5254 164.927C44.5605 173.517 40.6429 181.117 36.7725 187.725C35.0732 190.557 33.2796 193.341 31.3916 196.079C29.5036 198.817 27.6156 201.271 25.7275 203.442C23.8395 205.519 21.9515 207.171 20.0635 208.398C18.1755 209.72 16.3346 210.381 14.541 210.381C11.709 210.381 9.39616 209.956 7.60254 209.106C5.80892 208.257 4.3929 207.171 3.35449 205.85C2.31608 204.622 1.56087 203.206 1.08887 201.602C0.711263 199.997 0.522461 198.486 0.522461 197.07C0.522461 194.616 0.852865 192.209 1.51367 189.849C2.17448 187.394 3.11849 185.081 4.3457 182.91L23.0371 151.475C23.8867 150.153 25.5859 146.991 28.1348 141.987C30.778 136.984 34.1292 130.848 38.1885 123.579C42.3421 116.216 47.1094 108.097 52.4902 99.2236C57.8711 90.3499 63.6768 81.3818 69.9072 72.3193C76.2321 63.1624 82.8874 54.2887 89.873 45.6982C96.9531 37.1077 104.175 29.5085 111.538 22.9004C118.996 16.1979 126.501 10.8643 134.053 6.89941C141.605 2.84017 149.11 0.810547 156.567 0.810547C163.553 0.810547 170.397 2.98177 177.1 7.32422C183.896 11.6667 190.363 18.7939 196.499 28.7061C197.16 30.0277 197.49 31.1605 197.49 32.1045C197.49 33.3317 197.16 34.5589 196.499 35.7861C195.838 37.0133 194.941 38.099 193.809 39.043C192.77 39.987 191.59 40.7422 190.269 41.3086C188.947 41.875 187.578 42.1582 186.162 42.1582C184.463 42.1582 182.48 41.7806 180.215 41.0254C178.044 40.2702 175.967 38.6654 173.984 36.2109C171.058 32.8125 167.99 30.3581 164.78 28.8477C161.665 27.2428 158.55 26.4404 155.435 26.4404C150.998 26.4404 146.466 27.7148 141.841 30.2637C137.215 32.7181 132.542 36.1165 127.822 40.459C123.197 44.707 118.571 49.6631 113.945 55.3271C109.32 60.8968 104.836 66.7969 100.493 73.0273C96.1507 79.2578 91.9499 85.6299 87.8906 92.1436C83.8314 98.6572 80.0081 104.888 76.4209 110.835C72.8337 116.782 69.5296 122.257 66.5088 127.261C63.5824 132.264 60.9863 136.465 58.7207 139.863H84.6338L128.389 136.606C129.238 134.718 130.371 132.17 131.787 128.96C133.203 125.656 134.761 121.974 136.46 117.915C138.254 113.856 140.189 109.466 142.266 104.746C144.342 100.026 146.419 95.306 148.496 90.5859C150.667 85.7715 152.791 81.0514 154.868 76.4258C156.945 71.7057 158.88 67.3633 160.674 63.3984C161.901 59.8112 163.695 57.2624 166.055 55.752C168.509 54.2415 171.105 53.4863 173.843 53.4863C175.259 53.4863 176.675 53.7223 178.091 54.1943C179.507 54.5719 180.781 55.2327 181.914 56.1768C183.141 57.0264 184.132 58.1592 184.888 59.5752C185.643 60.8968 186.068 62.5016 186.162 64.3896C186.162 66.1833 185.36 69.2513 183.755 73.5938C182.244 77.9362 180.262 83.0339 177.808 88.8867C175.448 94.7396 172.757 101.112 169.736 108.003C166.81 114.8 163.883 121.644 160.957 128.535C158.125 135.332 155.482 141.893 153.027 148.218C150.573 154.448 148.685 159.924 147.363 164.644ZM268.433 125.562C263.052 125.562 257.671 126.883 252.29 129.526C246.909 132.075 242.048 135.474 237.705 139.722C233.457 143.97 229.964 148.784 227.227 154.165C224.489 159.451 223.12 164.832 223.12 170.308C223.12 171.818 223.262 173.376 223.545 174.98C223.828 176.491 224.395 177.907 225.244 179.229C226.188 180.55 227.51 181.636 229.209 182.485C230.908 183.335 233.174 183.76 236.006 183.76C241.481 183.76 246.768 182.485 251.865 179.937C257.057 177.293 261.683 173.848 265.742 169.6C269.801 165.352 273.058 160.584 275.513 155.298C277.967 149.917 279.194 144.536 279.194 139.155C279.194 137.739 279.053 136.229 278.77 134.624C278.581 133.019 278.109 131.556 277.354 130.234C276.598 128.913 275.513 127.827 274.097 126.978C272.681 126.034 270.793 125.562 268.433 125.562ZM280.327 182.627C272.303 192.256 263.76 199.336 254.697 203.867C245.729 208.304 236.006 210.522 225.527 210.522C219.769 210.522 214.907 209.673 210.942 207.974C206.978 206.369 203.768 204.15 201.313 201.318C198.859 198.486 197.065 195.182 195.933 191.406C194.894 187.63 194.375 183.618 194.375 179.37C194.375 174.556 194.989 169.6 196.216 164.502C197.443 159.31 199.048 154.307 201.03 149.492C202.352 146.377 203.438 143.781 204.287 141.704C205.137 139.627 205.845 137.881 206.411 136.465C206.978 134.954 207.45 133.68 207.827 132.642C208.299 131.509 208.771 130.376 209.243 129.243C209.715 128.016 210.282 126.647 210.942 125.137C211.603 123.532 212.5 121.502 213.633 119.048L254.98 27.1484C255.547 25.9212 256.349 24.7412 257.388 23.6084C258.521 22.4756 259.795 21.4844 261.211 20.6348C262.627 19.6908 264.137 18.9827 265.742 18.5107C267.441 17.9443 269.141 17.6611 270.84 17.6611C275.182 17.6611 278.203 18.5107 279.902 20.21C281.696 21.9092 282.593 23.986 282.593 26.4404C282.593 28.3285 282.121 30.4053 281.177 32.6709C280.233 34.8421 279.194 36.8717 278.062 38.7598C271.076 52.1647 264.468 65.8057 258.237 79.6826C252.007 93.4652 245.399 107.106 238.413 120.605C241.434 118.245 244.644 115.98 248.042 113.809C251.44 111.543 254.98 109.561 258.662 107.861C262.344 106.068 266.167 104.652 270.132 103.613C274.097 102.48 278.156 101.914 282.31 101.914C285.236 101.914 288.21 102.48 291.23 103.613C294.251 104.746 296.989 106.398 299.443 108.569C301.992 110.741 304.022 113.431 305.532 116.641C307.137 119.756 307.939 123.39 307.939 127.544C307.939 128.488 307.656 130.376 307.09 133.208C306.523 136.04 305.674 139.25 304.541 142.837C303.503 146.33 302.181 149.964 300.576 153.74C299.066 157.422 297.367 160.679 295.479 163.511C296.139 164.549 296.989 165.21 298.027 165.493C299.066 165.682 300.246 165.776 301.567 165.776C305.91 165.776 310.205 165.21 314.453 164.077C318.796 162.944 322.855 161.576 326.631 159.971C330.501 158.271 334.041 156.525 337.251 154.731C340.461 152.938 343.151 151.38 345.322 150.059C346.455 148.831 347.682 148.218 349.004 148.218C350.609 148.218 351.978 148.926 353.11 150.342C354.338 151.758 354.951 153.599 354.951 155.864C354.951 158.035 354.479 160.207 353.535 162.378C352.686 164.455 351.081 166.768 348.721 169.316C344.473 171.865 340.177 174.272 335.835 176.538C331.587 178.804 327.244 180.786 322.808 182.485C318.371 184.09 313.84 185.412 309.214 186.45C304.683 187.394 300.057 187.866 295.337 187.866C292.316 187.866 289.531 187.441 286.982 186.592C284.434 185.742 282.215 184.421 280.327 182.627ZM379.873 126.978C375.436 126.978 371.141 128.11 366.987 130.376C362.928 132.547 359.294 135.474 356.084 139.155C352.969 142.743 350.467 146.849 348.579 151.475C346.691 156.006 345.747 160.679 345.747 165.493C345.747 167.287 345.889 169.269 346.172 171.44C346.455 173.517 347.021 175.5 347.871 177.388C348.815 179.181 350.137 180.692 351.836 181.919C353.535 183.146 355.801 183.76 358.633 183.76C362.975 183.76 367.176 182.627 371.235 180.361C375.389 178.001 379.071 174.98 382.28 171.299C385.49 167.523 388.039 163.275 389.927 158.555C391.815 153.835 392.759 149.067 392.759 144.253C392.759 142.365 392.617 140.43 392.334 138.447C392.145 136.37 391.579 134.482 390.635 132.783C389.785 131.084 388.511 129.715 386.812 128.677C385.112 127.544 382.799 126.978 379.873 126.978ZM387.236 102.056C390.824 102.056 394.647 102.528 398.706 103.472C402.86 104.416 406.683 106.021 410.176 108.286C413.669 110.552 416.548 113.573 418.813 117.349C421.174 121.03 422.354 125.609 422.354 131.084C422.354 133.916 421.976 137.173 421.221 140.854C420.465 144.442 419.333 148.218 417.822 152.183C418.766 153.315 419.852 154.118 421.079 154.59C422.306 155.062 423.628 155.298 425.044 155.298C427.026 155.298 429.198 154.731 431.558 153.599C434.012 152.466 436.514 151.003 439.062 149.209C441.611 147.415 444.16 145.386 446.709 143.12C449.258 140.854 451.665 138.589 453.931 136.323C456.196 134.058 458.226 131.934 460.02 129.951C461.908 127.874 463.465 126.128 464.692 124.712C465.353 124.051 466.156 123.721 467.1 123.721C468.421 123.721 469.601 124.429 470.64 125.845C471.678 127.166 472.197 129.054 472.197 131.509C472.197 133.963 471.442 136.795 469.932 140.005C468.516 143.215 465.825 146.566 461.86 150.059C459.595 152.513 456.999 155.345 454.072 158.555C451.146 161.764 448.031 164.785 444.727 167.617C441.423 170.449 437.977 172.856 434.39 174.839C430.802 176.821 427.215 177.812 423.628 177.812C421.174 177.812 418.766 177.435 416.406 176.68C414.141 175.924 411.828 174.697 409.468 172.998C406.069 178.285 402.199 183.099 397.856 187.441C393.514 191.784 388.652 195.513 383.271 198.628C377.985 201.743 372.227 204.15 365.996 205.85C359.86 207.643 353.299 208.54 346.313 208.54C343.67 208.54 340.602 208.021 337.109 206.982C333.617 205.944 330.265 204.245 327.056 201.885C323.94 199.43 321.297 196.268 319.126 192.397C316.955 188.527 315.869 183.807 315.869 178.237C315.869 174.461 316.483 169.93 317.71 164.644C318.937 159.357 320.778 153.929 323.232 148.359C325.781 142.695 328.944 137.126 332.72 131.65C336.59 126.081 341.169 121.125 346.455 116.782C351.742 112.345 357.783 108.805 364.58 106.162C371.377 103.424 378.929 102.056 387.236 102.056ZM596.523 171.157C592.37 175.877 587.508 180.503 581.938 185.034C576.463 189.471 570.799 193.436 564.946 196.929C559.093 200.422 553.335 203.206 547.671 205.283C542.007 207.454 536.909 208.54 532.378 208.54C527.847 208.54 524.165 207.266 521.333 204.717C518.501 202.168 517.085 197.826 517.085 191.689C517.085 187.347 517.84 182.297 519.351 176.538C516.896 180.22 513.828 183.949 510.146 187.725C506.465 191.501 502.264 194.946 497.544 198.062C492.824 201.177 487.537 203.678 481.685 205.566C475.832 207.549 469.46 208.54 462.568 208.54C459.453 208.54 456.432 208.21 453.506 207.549C450.674 206.888 448.172 205.755 446.001 204.15C443.83 202.546 442.083 200.422 440.762 197.778C439.44 195.041 438.779 191.642 438.779 187.583C438.779 187.489 438.968 186.073 439.346 183.335C439.723 180.503 440.903 176.113 442.886 170.166C444.963 164.124 448.125 156.336 452.373 146.802C456.621 137.267 462.616 125.703 470.356 112.109C472.339 108.522 474.604 105.973 477.153 104.463C479.797 102.858 482.629 102.056 485.649 102.056C486.971 102.056 488.34 102.244 489.756 102.622C491.172 102.905 492.493 103.424 493.721 104.18C494.948 104.84 495.939 105.737 496.694 106.87C497.45 107.909 497.827 109.136 497.827 110.552C497.827 111.496 497.686 112.393 497.402 113.242C496.93 114.847 495.892 116.971 494.287 119.614C492.777 122.163 490.983 125.137 488.906 128.535C486.829 131.839 484.611 135.426 482.251 139.297C479.985 143.167 477.861 147.179 475.879 151.333C473.896 155.487 472.197 159.735 470.781 164.077C469.365 168.325 468.563 172.479 468.374 176.538C468.374 178.237 468.846 179.795 469.79 181.211C470.734 182.627 472.292 183.335 474.463 183.335C480.599 183.335 486.452 181.636 492.021 178.237C497.591 174.839 502.736 170.638 507.456 165.635C512.176 160.537 516.424 155.109 520.2 149.351C524.071 143.498 527.28 138.164 529.829 133.35C531.623 130.14 533.18 126.694 534.502 123.013C535.918 119.331 537.428 115.933 539.033 112.817C540.638 109.702 542.479 107.106 544.556 105.029C546.632 102.952 549.229 101.914 552.344 101.914C555.742 101.914 558.433 103 560.415 105.171C562.397 107.342 563.389 109.938 563.389 112.959C563.389 114.658 562.728 117.018 561.406 120.039C560.179 122.965 558.574 126.364 556.592 130.234C554.704 134.01 552.627 138.07 550.361 142.412C548.096 146.755 545.972 151.191 543.989 155.723C542.101 160.16 540.496 164.549 539.175 168.892C537.948 173.14 537.334 177.104 537.334 180.786C537.334 184.185 539.411 185.884 543.564 185.884C546.491 185.884 550.125 185.034 554.468 183.335C558.81 181.636 563.341 179.276 568.062 176.255C572.876 173.14 577.643 169.505 582.363 165.352C587.178 161.198 591.426 156.714 595.107 151.899L596.523 171.157ZM619.321 126.27C615.828 133.066 612.524 139.722 609.409 146.235C606.294 152.655 603.368 158.602 600.63 164.077C599.497 166.343 598.364 168.986 597.231 172.007C596.193 174.933 595.674 177.529 595.674 179.795C595.674 181.117 595.957 182.155 596.523 182.91C597.184 183.665 598.223 184.043 599.639 184.043C601.621 184.043 604.123 183.477 607.144 182.344C610.164 181.117 613.421 179.559 616.914 177.671C620.407 175.688 624.089 173.47 627.959 171.016C631.829 168.467 635.605 165.871 639.287 163.228C643.063 160.49 646.65 157.799 650.049 155.156C653.447 152.419 656.468 149.917 659.111 147.651C660.622 146.613 662.038 146.094 663.359 146.094C664.964 146.094 666.286 146.802 667.324 148.218C668.363 149.634 668.882 151.427 668.882 153.599C668.882 155.77 668.363 157.988 667.324 160.254C666.286 162.52 664.398 164.738 661.66 166.909C655.524 172.479 649.294 177.765 642.969 182.769C636.738 187.772 630.508 192.209 624.277 196.079C618.141 199.855 612.052 202.876 606.011 205.142C599.969 207.407 594.116 208.54 588.452 208.54C584.676 208.54 581.514 208.021 578.965 206.982C576.416 206.038 574.339 204.717 572.734 203.018C571.224 201.224 570.138 199.194 569.478 196.929C568.817 194.569 568.486 192.067 568.486 189.424C568.486 184.704 569.289 179.795 570.894 174.697C572.498 169.6 574.292 165.021 576.274 160.962C579.106 155.109 581.891 149.303 584.629 143.545C587.461 137.786 590.199 132.264 592.842 126.978H586.753C581.466 126.978 577.832 126.128 575.85 124.429C573.867 122.729 572.876 120.794 572.876 118.623C572.876 117.679 573.159 116.546 573.726 115.225C574.386 113.809 575.283 112.534 576.416 111.401C577.643 110.174 579.106 109.136 580.806 108.286C582.505 107.437 584.44 107.012 586.611 107.012H601.904L631.782 47.6807C633.67 44.0934 635.983 41.5446 638.721 40.0342C641.553 38.4294 644.479 37.627 647.5 37.627C650.332 37.627 652.928 38.3822 655.288 39.8926C657.648 41.403 658.828 43.9046 658.828 47.3975C658.828 49.1911 658.403 51.0319 657.554 52.9199C656.799 54.7135 655.76 56.8376 654.438 59.292C653.589 60.8968 652.55 62.832 651.323 65.0977C650.096 67.2689 648.774 69.6289 647.358 72.1777C646.037 74.6322 644.621 77.2282 643.11 79.9658C641.694 82.7035 640.278 85.3467 638.862 87.8955C635.653 93.9372 632.254 100.309 628.667 107.012H674.829C677.095 107.012 679.172 107.153 681.06 107.437C682.948 107.625 684.552 108.097 685.874 108.853C687.29 109.513 688.376 110.457 689.131 111.685C689.886 112.912 690.264 114.564 690.264 116.641C690.264 117.679 690.075 118.717 689.697 119.756C689.414 120.794 688.8 121.738 687.856 122.588C687.007 123.438 685.78 124.146 684.175 124.712C682.664 125.278 680.682 125.656 678.228 125.845L619.321 126.27ZM786.411 13.1299C788.866 8.22103 791.603 4.91699 794.624 3.21777C797.739 1.51855 800.76 0.668945 803.687 0.668945C805.291 0.668945 806.802 0.857747 808.218 1.23535C809.728 1.51855 811.05 2.08496 812.183 2.93457C813.315 3.68978 814.212 4.77539 814.873 6.19141C815.534 7.51302 815.864 9.16504 815.864 11.1475C815.864 13.6019 815.345 16.4339 814.307 19.6436C813.268 22.8532 811.569 26.7236 809.209 31.2549C799.769 47.9639 791.839 65.5697 785.42 84.0723C779.001 102.575 773.856 121.077 769.985 139.58C769.608 141.94 769.372 144.206 769.277 146.377C769.183 148.548 769.136 150.625 769.136 152.607C769.136 158.177 769.844 162.897 771.26 166.768C772.676 170.638 774.517 173.753 776.782 176.113C779.142 178.473 781.738 180.173 784.57 181.211C787.402 182.249 790.234 182.769 793.066 182.769C803.734 182.769 813.976 178.945 823.794 171.299C833.612 163.652 842.344 152.843 849.99 138.872C857.731 124.806 864.009 107.956 868.823 88.3203C873.732 68.5905 876.564 46.6423 877.319 22.4756C877.414 19.9268 877.886 17.7083 878.735 15.8203C879.585 13.8379 880.671 12.2331 881.992 11.0059C883.314 9.77865 884.824 8.88184 886.523 8.31543C888.317 7.65462 890.111 7.32422 891.904 7.32422C894.17 7.32422 896.011 8.17383 897.427 9.87305C898.937 11.4779 900.117 13.6491 900.967 16.3867C901.816 19.1243 902.383 22.334 902.666 26.0156C903.044 29.6029 903.232 33.3789 903.232 37.3438C903.232 54.0527 901.675 69.9121 898.56 84.9219C895.539 99.8372 891.338 113.667 885.957 126.411C880.576 139.061 874.204 150.483 866.841 160.679C859.572 170.78 851.642 179.417 843.052 186.592C834.461 193.672 825.446 199.147 816.006 203.018C806.66 206.794 797.267 208.682 787.827 208.682C781.974 208.682 776.074 207.454 770.127 205C764.274 202.546 758.988 198.958 754.268 194.238C749.548 189.518 745.724 183.76 742.798 176.963C739.871 170.166 738.408 162.425 738.408 153.74C738.408 152.135 738.455 150.483 738.55 148.784C738.644 146.991 738.833 145.197 739.116 143.403C740.343 136.134 741.665 129.243 743.081 122.729C744.591 116.121 746.291 109.655 748.179 103.33C750.067 96.9108 752.191 90.4443 754.551 83.9307C756.911 77.417 759.601 70.5729 762.622 63.3984C765.737 56.1296 769.23 48.3887 773.101 40.1758C777.065 31.9629 781.502 22.9476 786.411 13.1299ZM929.854 125.278C935.612 128.299 940.757 131.745 945.288 135.615C949.819 139.486 953.643 143.592 956.758 147.935C959.967 152.183 962.375 156.525 963.979 160.962C965.679 165.399 966.528 169.741 966.528 173.989C966.528 179.37 964.971 184.232 961.855 188.574C958.835 192.822 954.823 196.457 949.819 199.478C944.91 202.404 939.246 204.622 932.827 206.133C926.502 207.738 920.083 208.54 913.569 208.54C908.66 208.54 903.893 207.974 899.268 206.841C894.642 205.802 890.394 204.15 886.523 201.885C882.747 199.619 879.491 196.74 876.753 193.247C874.015 189.66 872.08 185.412 870.947 180.503C870.758 179.748 870.664 179.134 870.664 178.662C870.664 176.113 871.561 173.942 873.354 172.148C875.148 170.26 877.131 169.316 879.302 169.316C880.34 169.316 881.473 169.505 882.7 169.883C884.022 170.26 885.013 171.11 885.674 172.432C886.901 174.697 888.6 176.727 890.771 178.521C893.037 180.314 895.539 181.872 898.276 183.193C901.014 184.421 903.893 185.412 906.914 186.167C910.029 186.828 913.05 187.158 915.977 187.158C918.997 187.158 921.877 186.875 924.614 186.309C927.446 185.742 929.901 184.845 931.978 183.618C934.149 182.391 935.848 180.833 937.075 178.945C938.302 177.057 938.916 174.744 938.916 172.007C938.916 167.192 937.83 162.756 935.659 158.696C933.488 154.637 930.656 150.908 927.163 147.51C923.765 144.017 919.847 140.807 915.41 137.881C911.068 134.86 906.725 131.981 902.383 129.243C901.911 128.96 901.203 128.158 900.259 126.836C899.315 125.42 898.843 124.004 898.843 122.588C898.843 121.455 899.126 120.558 899.692 119.897C901.203 117.915 902.949 115.885 904.932 113.809C906.914 111.732 909.038 109.844 911.304 108.145C913.569 106.351 916.024 104.935 918.667 103.896C921.31 102.764 924.048 102.197 926.88 102.197C928.957 102.197 930.892 102.48 932.686 103.047C934.479 103.613 935.99 104.368 937.217 105.312C938.444 106.162 939.388 107.153 940.049 108.286C940.804 109.325 941.182 110.316 941.182 111.26C941.182 112.581 940.851 113.856 940.19 115.083C939.53 116.31 938.633 117.49 937.5 118.623C936.462 119.756 935.234 120.889 933.818 122.021C932.497 123.154 931.175 124.24 929.854 125.278Z" fill="white"/>
</svg>
