<svg width="734" height="115" viewBox="0 0 734 115" fill="none" xmlns="http://www.w3.org/2000/svg">
<path d="M0.640625 77.1406C0.640625 69.5365 1.76042 62.375 4 55.6562C6.29167 48.8854 9.33854 42.6615 13.1406 36.9844C16.9948 31.2552 21.4219 26.125 26.4219 21.5938C31.474 17.0625 36.7344 13.2344 42.2031 10.1094C47.724 6.93229 53.2969 4.51042 58.9219 2.84375C64.599 1.125 69.9896 0.265625 75.0938 0.265625C79.625 0.265625 83.9219 0.786458 87.9844 1.82812C92.099 2.86979 95.7448 4.45833 98.9219 6.59375C102.151 8.72917 104.833 11.4375 106.969 14.7188C109.104 17.9479 110.536 21.75 111.266 26.125C111.318 26.3854 111.344 26.6198 111.344 26.8281C111.344 27.0365 111.344 27.2708 111.344 27.5312C111.344 29.5625 110.745 31.125 109.547 32.2188C108.401 33.2604 107.151 33.7812 105.797 33.7812C104.286 33.7812 102.88 32.974 101.578 31.3594C100.276 29.7448 99.026 27.4531 97.8281 24.4844C95.901 20.8385 93.1146 18.1823 89.4688 16.5156C85.8229 14.849 81.7083 14.0156 77.125 14.0156C73.1146 14.0156 68.8958 14.7448 64.4688 16.2031C60.0938 17.6615 55.7448 19.7188 51.4219 22.375C47.151 25.0312 43.0625 28.2344 39.1562 31.9844C35.25 35.6823 31.8125 39.7969 28.8438 44.3281C25.875 48.8073 23.5052 53.651 21.7344 58.8594C20.0156 64.0677 19.1562 69.4583 19.1562 75.0312C19.1562 79.6667 19.7292 83.5729 20.875 86.75C22.0208 89.9271 23.5312 92.5052 25.4062 94.4844C27.2812 96.4635 29.3906 97.8958 31.7344 98.7812C34.0781 99.6667 36.4479 100.109 38.8438 100.109C44.2083 100.109 49.3125 98.651 54.1562 95.7344C59.0521 92.8177 63.349 88.651 67.0469 83.2344C70.7448 77.7656 73.6875 71.125 75.875 63.3125C78.0625 55.4479 79.1562 46.5938 79.1562 36.75C79.1562 35.7604 79.1302 34.7969 79.0781 33.8594C79.0781 32.8698 79.0781 31.8542 79.0781 30.8125C79.0781 28.2083 79.5469 26.3073 80.4844 25.1094C81.4219 23.8594 82.4896 23.2344 83.6875 23.2344C85.7188 23.2344 87.3594 23.8073 88.6094 24.9531C89.9115 26.0469 90.9271 27.5312 91.6562 29.4062C92.3854 31.2292 92.8802 33.3385 93.1406 35.7344C93.4531 38.0781 93.6094 40.5 93.6094 43C93.6094 50.0833 92.8542 56.776 91.3438 63.0781C89.8333 69.3281 87.724 75.1354 85.0156 80.5C82.3594 85.8125 79.1823 90.6042 75.4844 94.875C71.8385 99.0938 67.8802 102.688 63.6094 105.656C59.3385 108.573 54.8333 110.839 50.0938 112.453C45.4062 114.016 40.6667 114.797 35.875 114.797C31.4479 114.797 27.125 114.172 22.9062 112.922C18.6875 111.62 14.9115 109.51 11.5781 106.594C8.29688 103.625 5.64062 99.7448 3.60938 94.9531C1.63021 90.1094 0.640625 84.1719 0.640625 77.1406ZM178.531 94.3281C176.24 96.9323 173.557 99.4844 170.484 101.984C167.464 104.432 164.339 106.62 161.109 108.547C157.88 110.474 154.703 112.01 151.578 113.156C148.453 114.354 145.641 114.953 143.141 114.953C140.641 114.953 138.609 114.25 137.047 112.844C135.484 111.438 134.703 109.042 134.703 105.656C134.703 103.26 135.12 100.474 135.953 97.2969C134.599 99.3281 132.906 101.385 130.875 103.469C128.844 105.552 126.526 107.453 123.922 109.172C121.318 110.891 118.401 112.271 115.172 113.312C111.943 114.406 108.427 114.953 104.625 114.953C102.906 114.953 101.24 114.771 99.625 114.406C98.0625 114.042 96.6823 113.417 95.4844 112.531C94.2865 111.646 93.3229 110.474 92.5938 109.016C91.8646 107.505 91.5 105.63 91.5 103.391C91.5 103.339 91.6042 102.557 91.8125 101.047C92.0208 99.4844 92.6719 97.0625 93.7656 93.7812C94.9115 90.4479 96.6562 86.151 99 80.8906C101.344 75.6302 104.651 69.25 108.922 61.75C110.016 59.7708 111.266 58.3646 112.672 57.5312C114.13 56.6458 115.693 56.2031 117.359 56.2031C118.089 56.2031 118.844 56.3073 119.625 56.5156C120.406 56.6719 121.135 56.9583 121.812 57.375C122.49 57.7396 123.036 58.2344 123.453 58.8594C123.87 59.4323 124.078 60.1094 124.078 60.8906C124.078 61.4115 124 61.9062 123.844 62.375C123.583 63.2604 123.01 64.4323 122.125 65.8906C121.292 67.2969 120.302 68.9375 119.156 70.8125C118.01 72.6354 116.786 74.6146 115.484 76.75C114.234 78.8854 113.062 81.099 111.969 83.3906C110.875 85.6823 109.938 88.026 109.156 90.4219C108.375 92.7656 107.932 95.0573 107.828 97.2969C107.828 98.2344 108.089 99.0938 108.609 99.875C109.13 100.656 109.99 101.047 111.188 101.047C114.573 101.047 117.802 100.109 120.875 98.2344C123.948 96.3594 126.786 94.0417 129.391 91.2812C131.995 88.4688 134.339 85.474 136.422 82.2969C138.557 79.0677 140.328 76.125 141.734 73.4688C142.724 71.6979 143.583 69.7969 144.312 67.7656C145.094 65.7344 145.927 63.8594 146.812 62.1406C147.698 60.4219 148.714 58.9896 149.859 57.8438C151.005 56.6979 152.438 56.125 154.156 56.125C156.031 56.125 157.516 56.724 158.609 57.9219C159.703 59.1198 160.25 60.5521 160.25 62.2188C160.25 63.1562 159.885 64.4583 159.156 66.125C158.479 67.7396 157.594 69.6146 156.5 71.75C155.458 73.8333 154.312 76.0729 153.062 78.4688C151.812 80.8646 150.641 83.3125 149.547 85.8125C148.505 88.2604 147.62 90.6823 146.891 93.0781C146.214 95.4219 145.875 97.6094 145.875 99.6406C145.875 101.516 147.021 102.453 149.312 102.453C150.927 102.453 152.932 101.984 155.328 101.047C157.724 100.109 160.224 98.8073 162.828 97.1406C165.484 95.4219 168.115 93.4167 170.719 91.125C173.375 88.8333 175.719 86.3594 177.75 83.7031L178.531 94.3281ZM195.094 67.4531C197.125 66.2031 199.208 65.0573 201.344 64.0156C203.531 62.974 205.641 62.0885 207.672 61.3594C209.703 60.5781 211.63 59.9792 213.453 59.5625C215.328 59.0938 216.995 58.8594 218.453 58.8594C220.797 58.8594 222.594 59.4323 223.844 60.5781C225.146 61.6719 225.797 63.5469 225.797 66.2031C225.797 66.776 225.771 67.401 225.719 68.0781C225.667 68.7031 225.562 69.3802 225.406 70.1094C225.146 71.4635 224.365 73.0521 223.062 74.875C221.76 76.6979 220.224 78.599 218.453 80.5781C216.734 82.5573 214.859 84.5625 212.828 86.5938C210.849 88.5729 209 90.4219 207.281 92.1406C205.615 93.8073 204.208 95.2656 203.062 96.5156C201.969 97.7656 201.422 98.625 201.422 99.0938C201.422 99.5104 201.448 99.7969 201.5 99.9531C201.552 100.109 201.786 100.188 202.203 100.188C205.016 98.9896 208.141 97.5573 211.578 95.8906C215.068 94.1719 218.531 92.4271 221.969 90.6562C225.406 88.8854 228.661 87.1667 231.734 85.5C234.807 83.7812 237.411 82.2969 239.547 81.0469C240.016 80.7865 240.484 80.5781 240.953 80.4219C241.474 80.2135 241.943 80.1094 242.359 80.1094C243.297 80.1094 244.078 80.4219 244.703 81.0469C245.328 81.6719 245.641 82.5052 245.641 83.5469C245.641 84.7448 245.12 86.125 244.078 87.6875C243.089 89.1979 241.396 90.7865 239 92.4531C237.177 93.599 235.12 94.901 232.828 96.3594C230.589 97.7656 228.219 99.25 225.719 100.812C223.271 102.323 220.771 103.807 218.219 105.266C215.719 106.724 213.297 108.026 210.953 109.172C208.609 110.318 206.396 111.255 204.312 111.984C202.281 112.661 200.51 113 199 113C195.406 113 192.698 112.141 190.875 110.422C189.104 108.703 188.219 106.49 188.219 103.781C188.219 103.365 188.245 103.052 188.297 102.844C188.661 100.552 189.339 98.3385 190.328 96.2031C191.318 94.0677 192.438 92.0365 193.688 90.1094C194.938 88.1823 196.24 86.3594 197.594 84.6406C198.948 82.8698 200.172 81.2292 201.266 79.7188C202.411 78.1562 203.349 76.724 204.078 75.4219C204.807 74.1198 205.172 72.9219 205.172 71.8281C205.172 71.5677 205.12 71.3073 205.016 71.0469C204.911 70.7865 204.677 70.6562 204.312 70.6562C203.688 70.6562 202.646 70.8906 201.188 71.3594C199.781 71.8281 198.271 72.4531 196.656 73.2344C195.042 74.0156 193.505 74.9271 192.047 75.9688C190.589 76.9583 189.547 78.026 188.922 79.1719C188.089 80.6302 187.125 82.4792 186.031 84.7188C184.938 86.9583 183.792 89.3021 182.594 91.75C181.448 94.1979 180.328 96.6198 179.234 99.0156C178.141 101.411 177.203 103.469 176.422 105.188C175.797 106.698 174.964 108.052 173.922 109.25C172.932 110.448 171.839 111.464 170.641 112.297C169.443 113.13 168.219 113.781 166.969 114.25C165.719 114.719 164.573 114.953 163.531 114.953C162.333 114.953 161.37 114.641 160.641 114.016C159.964 113.391 159.625 112.375 159.625 110.969C159.625 110.396 159.703 109.693 159.859 108.859C160.068 107.974 160.458 107.01 161.031 105.969C161.969 104.198 162.906 102.271 163.844 100.188C164.833 98.1042 165.953 95.7344 167.203 93.0781C168.453 90.3698 169.885 87.2969 171.5 83.8594C173.167 80.3698 175.12 76.3594 177.359 71.8281C176.63 71.2031 176.005 70.4479 175.484 69.5625C175.016 68.625 174.781 67.4792 174.781 66.125C174.781 64.875 175.042 63.8073 175.562 62.9219C176.083 61.9844 176.786 61.2292 177.672 60.6562C178.557 60.0833 179.573 59.6667 180.719 59.4062C181.917 59.0938 183.167 58.9375 184.469 58.9375C185.823 58.9375 187.177 59.0677 188.531 59.3281C189.885 59.5365 191.083 59.875 192.125 60.3438C193.219 60.8125 194.104 61.3854 194.781 62.0625C195.458 62.7396 195.797 63.5208 195.797 64.4062C195.797 64.5625 195.745 64.7708 195.641 65.0312C195.536 65.2917 195.406 65.5781 195.25 65.8906C195.146 66.2031 195.042 66.4896 194.938 66.75C194.833 67.0104 194.781 67.2188 194.781 67.375C194.781 67.4792 194.807 67.5312 194.859 67.5312H194.938L195.094 67.4531ZM304.859 69.4844C306.37 69.4844 307.464 70.1094 308.141 71.3594C308.87 72.5573 309.234 73.9375 309.234 75.5C309.234 76.2812 309.156 76.9583 309 77.5312C308.844 78.1042 308.531 78.651 308.062 79.1719C307.594 79.6406 306.969 80.1094 306.188 80.5781C305.406 80.9948 304.391 81.4635 303.141 81.9844C300.224 83.2344 297.932 84.7448 296.266 86.5156C294.599 88.2344 293.766 89.9531 293.766 91.6719C293.766 92.7656 294.13 93.8073 294.859 94.7969C295.589 95.7865 296.734 96.6719 298.297 97.4531C299.859 98.1823 301.865 98.7812 304.312 99.25C306.812 99.6667 309.807 99.875 313.297 99.875C316.891 99.875 320.302 99.4583 323.531 98.625C326.76 97.7396 329.573 96.5156 331.969 94.9531C334.417 93.3906 336.344 91.5417 337.75 89.4062C339.208 87.2708 339.938 84.9531 339.938 82.4531C339.938 80.5781 339.156 78.625 337.594 76.5938C336.031 74.5625 333.557 72.4531 330.172 70.2656C324.182 66.3594 319.625 63.2083 316.5 60.8125C313.427 58.4167 311.526 56.9062 310.797 56.2812C306.891 52.8438 303.974 49.5365 302.047 46.3594C300.12 43.1823 299.156 39.875 299.156 36.4375C299.156 33.2604 299.911 30.1615 301.422 27.1406C302.984 24.1198 305.068 21.2812 307.672 18.625C310.276 15.9688 313.271 13.5208 316.656 11.2812C320.094 8.98958 323.661 7.03646 327.359 5.42188C331.109 3.80729 334.859 2.55729 338.609 1.67188C342.411 0.734375 346.005 0.265625 349.391 0.265625C351.943 0.265625 354.286 0.552083 356.422 1.125C358.609 1.69792 360.51 2.60938 362.125 3.85938C363.74 5.05729 364.99 6.61979 365.875 8.54688C366.812 10.474 367.281 12.7917 367.281 15.5C367.281 19.4062 366.161 23.1302 363.922 26.6719C361.682 30.2135 358.271 33.5208 353.688 36.5938C351.656 38 349.781 38.7031 348.062 38.7031C346.292 38.7031 344.885 38.0781 343.844 36.8281C342.802 35.526 342.281 34.0156 342.281 32.2969C342.281 30.8385 342.698 29.3802 343.531 27.9219C344.417 26.4635 345.823 25.2135 347.75 24.1719C349.26 23.3906 350.589 22.349 351.734 21.0469C352.932 19.6927 353.531 18.3906 353.531 17.1406C353.531 15.9427 353.115 15.1615 352.281 14.7969C351.5 14.4323 350.536 14.25 349.391 14.25C347.203 14.25 344.807 14.5365 342.203 15.1094C339.651 15.6302 337.073 16.3594 334.469 17.2969C331.917 18.2344 329.417 19.3542 326.969 20.6562C324.573 21.9583 322.438 23.3646 320.562 24.875C318.74 26.3854 317.255 28 316.109 29.7188C315.016 31.3854 314.469 33.0521 314.469 34.7188C314.469 35.8646 314.703 36.9323 315.172 37.9219C315.641 38.9115 316.318 39.901 317.203 40.8906C318.141 41.8802 319.26 42.9219 320.562 44.0156C321.865 45.0573 323.375 46.2031 325.094 47.4531L343.375 60.9688C345.719 62.6875 347.802 64.3802 349.625 66.0469C351.5 67.6615 353.062 69.3021 354.312 70.9688C355.562 72.5833 356.526 74.224 357.203 75.8906C357.88 77.5573 358.219 79.3281 358.219 81.2031C358.219 85.3698 357.125 89.4583 354.938 93.4688C352.802 97.4271 349.729 100.969 345.719 104.094C341.76 107.219 336.969 109.745 331.344 111.672C325.771 113.599 319.573 114.562 312.75 114.562C306.396 114.562 300.979 114.042 296.5 113C292.073 112.01 288.427 110.656 285.562 108.938C282.698 107.167 280.615 105.161 279.312 102.922C278.01 100.63 277.359 98.2344 277.359 95.7344C277.359 93.1302 278.01 90.5 279.312 87.8438C280.667 85.1354 282.542 82.5833 284.938 80.1875C287.385 77.7917 290.302 75.6562 293.688 73.7812C297.073 71.9062 300.797 70.474 304.859 69.4844ZM396.969 66.9062C396.708 66.8542 396.474 66.8281 396.266 66.8281C396.057 66.8281 395.823 66.8281 395.562 66.8281C393.583 66.8281 391.734 67.2188 390.016 68C388.297 68.7812 386.708 69.8229 385.25 71.125C383.844 72.375 382.568 73.8073 381.422 75.4219C380.328 77.0365 379.339 78.651 378.453 80.2656C377.568 81.8281 376.812 83.3385 376.188 84.7969C375.615 86.2552 375.172 87.4792 374.859 88.4688C376.682 87.5312 378.557 86.4635 380.484 85.2656C382.464 84.0677 384.312 82.9219 386.031 81.8281C387.75 80.7344 389.234 79.7448 390.484 78.8594C391.786 77.974 392.698 77.375 393.219 77.0625C395.562 75.6042 397.177 74.25 398.062 73C398.948 71.6979 399.391 70.5781 399.391 69.6406C399.391 68.8594 399.13 68.2344 398.609 67.7656C398.141 67.2969 397.594 67.0104 396.969 66.9062ZM399.781 56.125C404.104 56.125 407.333 57.1667 409.469 59.25C411.604 61.3333 412.672 64.224 412.672 67.9219C412.672 70.1094 412.099 72.401 410.953 74.7969C409.807 77.1927 407.828 79.6406 405.016 82.1406C402.203 84.5885 398.427 87.1146 393.688 89.7188C389 92.2708 383.115 94.849 376.031 97.4531C376.292 98.9635 377.099 100.161 378.453 101.047C379.807 101.88 381.604 102.297 383.844 102.297C386.24 102.297 388.792 101.958 391.5 101.281C394.26 100.552 396.969 99.6406 399.625 98.5469C402.333 97.4531 404.964 96.2812 407.516 95.0312C410.068 93.7292 412.359 92.5052 414.391 91.3594C416.474 90.2135 418.193 89.224 419.547 88.3906C420.953 87.5573 421.891 87.0365 422.359 86.8281C422.828 86.5156 423.245 86.3333 423.609 86.2812C424.026 86.2292 424.391 86.2031 424.703 86.2031C425.328 86.2031 425.849 86.3594 426.266 86.6719C426.682 86.9323 427.021 87.2708 427.281 87.6875C427.594 88.0521 427.802 88.4688 427.906 88.9375C428.01 89.3542 428.062 89.7188 428.062 90.0312C428.062 90.5 428.01 91.0729 427.906 91.75C427.802 92.375 427.411 93.1042 426.734 93.9375C426.474 94.1979 425.589 94.901 424.078 96.0469C422.62 97.1927 420.719 98.5469 418.375 100.109C416.031 101.672 413.297 103.339 410.172 105.109C407.099 106.828 403.818 108.417 400.328 109.875C396.891 111.333 393.297 112.531 389.547 113.469C385.797 114.458 382.099 114.953 378.453 114.953C375.328 114.953 372.542 114.354 370.094 113.156C367.698 111.958 365.641 110.344 363.922 108.312C362.255 106.281 360.979 103.938 360.094 101.281C359.208 98.625 358.766 95.8385 358.766 92.9219C358.766 90.6823 359.208 88.2344 360.094 85.5781C360.979 82.8698 362.255 80.1615 363.922 77.4531C365.589 74.7448 367.62 72.1146 370.016 69.5625C372.464 66.9583 375.198 64.6667 378.219 62.6875C381.24 60.7083 384.547 59.1198 388.141 57.9219C391.786 56.724 395.667 56.125 399.781 56.125ZM446.969 67.4531C449 66.2031 451.083 65.0573 453.219 64.0156C455.406 62.974 457.516 62.0885 459.547 61.3594C461.578 60.5781 463.505 59.9792 465.328 59.5625C467.203 59.0938 468.87 58.8594 470.328 58.8594C472.672 58.8594 474.469 59.4323 475.719 60.5781C477.021 61.6719 477.672 63.5469 477.672 66.2031C477.672 66.776 477.646 67.401 477.594 68.0781C477.542 68.7031 477.438 69.3802 477.281 70.1094C477.021 71.4635 476.24 73.0521 474.938 74.875C473.635 76.6979 472.099 78.599 470.328 80.5781C468.609 82.5573 466.734 84.5625 464.703 86.5938C462.724 88.5729 460.875 90.4219 459.156 92.1406C457.49 93.8073 456.083 95.2656 454.938 96.5156C453.844 97.7656 453.297 98.625 453.297 99.0938C453.297 99.5104 453.323 99.7969 453.375 99.9531C453.427 100.109 453.661 100.188 454.078 100.188C456.891 98.9896 460.016 97.5573 463.453 95.8906C466.943 94.1719 470.406 92.4271 473.844 90.6562C477.281 88.8854 480.536 87.1667 483.609 85.5C486.682 83.7812 489.286 82.2969 491.422 81.0469C491.891 80.7865 492.359 80.5781 492.828 80.4219C493.349 80.2135 493.818 80.1094 494.234 80.1094C495.172 80.1094 495.953 80.4219 496.578 81.0469C497.203 81.6719 497.516 82.5052 497.516 83.5469C497.516 84.7448 496.995 86.125 495.953 87.6875C494.964 89.1979 493.271 90.7865 490.875 92.4531C489.052 93.599 486.995 94.901 484.703 96.3594C482.464 97.7656 480.094 99.25 477.594 100.812C475.146 102.323 472.646 103.807 470.094 105.266C467.594 106.724 465.172 108.026 462.828 109.172C460.484 110.318 458.271 111.255 456.188 111.984C454.156 112.661 452.385 113 450.875 113C447.281 113 444.573 112.141 442.75 110.422C440.979 108.703 440.094 106.49 440.094 103.781C440.094 103.365 440.12 103.052 440.172 102.844C440.536 100.552 441.214 98.3385 442.203 96.2031C443.193 94.0677 444.312 92.0365 445.562 90.1094C446.812 88.1823 448.115 86.3594 449.469 84.6406C450.823 82.8698 452.047 81.2292 453.141 79.7188C454.286 78.1562 455.224 76.724 455.953 75.4219C456.682 74.1198 457.047 72.9219 457.047 71.8281C457.047 71.5677 456.995 71.3073 456.891 71.0469C456.786 70.7865 456.552 70.6562 456.188 70.6562C455.562 70.6562 454.521 70.8906 453.062 71.3594C451.656 71.8281 450.146 72.4531 448.531 73.2344C446.917 74.0156 445.38 74.9271 443.922 75.9688C442.464 76.9583 441.422 78.026 440.797 79.1719C439.964 80.6302 439 82.4792 437.906 84.7188C436.812 86.9583 435.667 89.3021 434.469 91.75C433.323 94.1979 432.203 96.6198 431.109 99.0156C430.016 101.411 429.078 103.469 428.297 105.188C427.672 106.698 426.839 108.052 425.797 109.25C424.807 110.448 423.714 111.464 422.516 112.297C421.318 113.13 420.094 113.781 418.844 114.25C417.594 114.719 416.448 114.953 415.406 114.953C414.208 114.953 413.245 114.641 412.516 114.016C411.839 113.391 411.5 112.375 411.5 110.969C411.5 110.396 411.578 109.693 411.734 108.859C411.943 107.974 412.333 107.01 412.906 105.969C413.844 104.198 414.781 102.271 415.719 100.188C416.708 98.1042 417.828 95.7344 419.078 93.0781C420.328 90.3698 421.76 87.2969 423.375 83.8594C425.042 80.3698 426.995 76.3594 429.234 71.8281C428.505 71.2031 427.88 70.4479 427.359 69.5625C426.891 68.625 426.656 67.4792 426.656 66.125C426.656 64.875 426.917 63.8073 427.438 62.9219C427.958 61.9844 428.661 61.2292 429.547 60.6562C430.432 60.0833 431.448 59.6667 432.594 59.4062C433.792 59.0938 435.042 58.9375 436.344 58.9375C437.698 58.9375 439.052 59.0677 440.406 59.3281C441.76 59.5365 442.958 59.875 444 60.3438C445.094 60.8125 445.979 61.3854 446.656 62.0625C447.333 62.7396 447.672 63.5208 447.672 64.4062C447.672 64.5625 447.62 64.7708 447.516 65.0312C447.411 65.2917 447.281 65.5781 447.125 65.8906C447.021 66.2031 446.917 66.4896 446.812 66.75C446.708 67.0104 446.656 67.2188 446.656 67.375C446.656 67.4792 446.682 67.5312 446.734 67.5312H446.812L446.969 67.4531ZM553.219 95.5C549.312 98.4688 545.406 100.812 541.5 102.531C537.594 104.198 533.271 105.031 528.531 105.031C526.969 105.031 525.458 104.745 524 104.172C522.542 103.599 520.641 102.583 518.297 101.125C514.859 105.656 511.396 109.094 507.906 111.438C504.469 113.781 500.875 114.953 497.125 114.953C495.302 114.953 493.557 114.615 491.891 113.938C490.224 113.312 488.766 112.349 487.516 111.047C486.266 109.745 485.25 108.13 484.469 106.203C483.74 104.276 483.375 102.036 483.375 99.4844C483.375 96.3594 483.714 93 484.391 89.4062C485.12 85.7604 485.979 82.2188 486.969 78.7812C487.958 75.3438 488.922 72.1667 489.859 69.25C490.849 66.3333 491.63 64.0156 492.203 62.2969C493.245 60.1094 494.547 58.5469 496.109 57.6094C497.724 56.6198 499.286 56.125 500.797 56.125C501.474 56.125 502.151 56.2552 502.828 56.5156C503.557 56.724 504.208 57.0365 504.781 57.4531C505.354 57.8698 505.823 58.3646 506.188 58.9375C506.552 59.5104 506.734 60.1354 506.734 60.8125C506.734 61.3854 506.63 61.8802 506.422 62.2969C505.641 64.7969 504.703 67.5312 503.609 70.5C502.568 73.4167 501.578 76.3594 500.641 79.3281C499.703 82.2969 498.896 85.2135 498.219 88.0781C497.594 90.8906 497.281 93.4688 497.281 95.8125C497.281 96.1771 497.333 96.6719 497.438 97.2969C497.542 97.8698 497.672 98.4427 497.828 99.0156C497.984 99.5365 498.193 100.005 498.453 100.422C498.714 100.786 499 100.969 499.312 100.969C500.667 100.969 502.177 100.214 503.844 98.7031C505.51 97.1927 507.333 95.1094 509.312 92.4531C511.031 90.6302 512.646 88.4948 514.156 86.0469C515.719 83.5469 517.177 80.9948 518.531 78.3906C519.938 75.7865 521.266 73.2344 522.516 70.7344C523.818 68.1823 525.068 65.9167 526.266 63.9375C527.516 61.9062 528.74 60.2917 529.938 59.0938C531.135 57.8438 532.359 57.2188 533.609 57.2188C535.745 57.2188 537.255 57.9219 538.141 59.3281C539.026 60.6823 539.469 62.3229 539.469 64.25C539.469 66.4375 539.104 68.4427 538.375 70.2656C537.698 72.0885 536.76 73.9896 535.562 75.9688C534.365 77.8958 532.932 80.0573 531.266 82.4531C529.651 84.7969 527.88 87.6094 525.953 90.8906C526.786 91.9844 528.089 92.5312 529.859 92.5312C531.734 92.5312 533.661 92.2969 535.641 91.8281C537.672 91.3594 539.677 90.7083 541.656 89.875C543.635 88.9896 545.589 87.9479 547.516 86.75C549.495 85.5 551.396 84.1458 553.219 82.6875C554 82.2188 554.729 81.9844 555.406 81.9844C556.344 81.9844 557.099 82.401 557.672 83.2344C558.297 84.0677 558.609 85.1354 558.609 86.4375C558.609 87.8438 558.193 89.3802 557.359 91.0469C556.526 92.6615 555.146 94.1458 553.219 95.5ZM566.969 45.4219C566.969 44.224 567.177 43 567.594 41.75C568.062 40.4479 568.74 39.276 569.625 38.2344C570.51 37.1927 571.604 36.3333 572.906 35.6562C574.26 34.9792 575.849 34.6406 577.672 34.6406C580.693 34.6406 582.802 35.2396 584 36.4375C585.198 37.5833 585.797 39.0417 585.797 40.8125C585.797 41.8021 585.589 42.8958 585.172 44.0938C584.807 45.2917 584.234 46.4115 583.453 47.4531C582.672 48.4427 581.656 49.276 580.406 49.9531C579.156 50.6302 577.672 50.9688 575.953 50.9688C572.724 50.9688 570.458 50.474 569.156 49.4844C567.854 48.4427 567.125 47.0885 566.969 45.4219ZM558.375 63C559.26 61.5417 560.276 60.5 561.422 59.875C562.568 59.25 563.74 58.9375 564.938 58.9375C566.917 58.9375 568.609 59.5885 570.016 60.8906C571.474 62.1406 572.203 63.7552 572.203 65.7344C572.151 66.2031 572.073 66.6719 571.969 67.1406C571.917 67.6094 571.76 68.0781 571.5 68.5469C570.771 69.901 570.172 71.0469 569.703 71.9844C569.234 72.9219 568.792 73.8073 568.375 74.6406C568.01 75.4219 567.646 76.2031 567.281 76.9844C566.917 77.7656 566.474 78.7031 565.953 79.7969C565.328 81.099 564.625 82.5312 563.844 84.0938C563.062 85.6042 562.307 87.1667 561.578 88.7812C560.901 90.3958 560.302 91.9844 559.781 93.5469C559.312 95.1094 559.078 96.5417 559.078 97.8438C559.078 99.25 559.417 100.188 560.094 100.656C560.823 101.073 561.839 101.281 563.141 101.281C564.599 101.281 566.109 100.969 567.672 100.344C569.286 99.7188 570.901 98.9115 572.516 97.9219C574.13 96.9323 575.719 95.8125 577.281 94.5625C578.844 93.2604 580.302 91.9583 581.656 90.6562C583.062 89.3542 584.339 88.1042 585.484 86.9062C586.682 85.7083 587.672 84.6406 588.453 83.7031C589.495 82.7135 590.536 82.2188 591.578 82.2188C592.516 82.2188 593.271 82.6354 593.844 83.4688C594.469 84.3021 594.781 85.3698 594.781 86.6719C594.781 87.8698 594.469 89.1458 593.844 90.5C593.271 91.8542 592.307 93.1302 590.953 94.3281C588.297 97.0365 585.589 99.6406 582.828 102.141C580.068 104.589 577.229 106.776 574.312 108.703C571.448 110.578 568.557 112.089 565.641 113.234C562.724 114.38 559.781 114.953 556.812 114.953C552.594 114.953 549.26 113.885 546.812 111.75C544.417 109.562 543.219 106.177 543.219 101.594C543.219 99.1979 543.557 96.8542 544.234 94.5625C544.911 92.2708 545.719 90.0573 546.656 87.9219C547.594 85.7344 548.583 83.651 549.625 81.6719C550.667 79.6406 551.552 77.7135 552.281 75.8906C552.542 75.2135 552.984 74.1719 553.609 72.7656C554.286 71.3594 554.99 69.9271 555.719 68.4688C556.552 66.75 557.438 64.9271 558.375 63ZM629.703 63.3906C629.703 65.0052 629.521 66.8021 629.156 68.7812C628.792 70.7083 628.193 72.5312 627.359 74.25C626.526 75.9688 625.458 77.401 624.156 78.5469C622.854 79.6927 621.24 80.2656 619.312 80.2656C618.271 80.2656 617.594 80.1094 617.281 79.7969C617.021 79.4844 616.891 78.9375 616.891 78.1562C616.891 77.6875 616.891 77.0104 616.891 76.125C616.943 75.1875 616.969 74.3021 616.969 73.4688C616.969 72.5312 616.839 71.75 616.578 71.125C616.318 70.4479 615.667 70.1094 614.625 70.1094C613.427 70.1094 612.073 70.5781 610.562 71.5156C609.104 72.401 607.62 73.5729 606.109 75.0312C604.651 76.4896 603.219 78.1562 601.812 80.0312C600.406 81.8542 599.13 83.7292 597.984 85.6562C596.891 87.5312 596.005 89.3542 595.328 91.125C594.703 92.8958 594.391 94.4062 594.391 95.6562C594.391 97.4792 595.016 98.9115 596.266 99.9531C597.568 100.995 599.312 101.516 601.5 101.516C603.844 101.516 606.344 101.125 609 100.344C611.656 99.5625 614.286 98.5729 616.891 97.375C619.547 96.1771 622.099 94.875 624.547 93.4688C626.995 92.0625 629.208 90.7344 631.188 89.4844C633.219 88.1823 634.911 87.0885 636.266 86.2031C637.62 85.2656 638.505 84.6927 638.922 84.4844C639.755 84.0677 640.536 83.8594 641.266 83.8594C641.891 83.8594 642.411 84.0156 642.828 84.3281C643.297 84.5885 643.661 84.9271 643.922 85.3438C644.182 85.7083 644.365 86.125 644.469 86.5938C644.573 87.0104 644.625 87.375 644.625 87.6875C644.625 88.1562 644.573 88.7292 644.469 89.4062C644.365 90.0312 643.974 90.7604 643.297 91.5938C643.036 91.9062 642.177 92.7135 640.719 94.0156C639.312 95.2656 637.464 96.75 635.172 98.4688C632.932 100.188 630.328 102.036 627.359 104.016C624.443 105.943 621.292 107.714 617.906 109.328C614.573 110.943 611.109 112.271 607.516 113.312C603.922 114.406 600.38 114.953 596.891 114.953C594.234 114.953 591.865 114.536 589.781 113.703C587.75 112.87 586.031 111.75 584.625 110.344C583.219 108.885 582.151 107.193 581.422 105.266C580.693 103.339 580.328 101.307 580.328 99.1719C580.328 96.8281 580.875 94.1458 581.969 91.125C583.062 88.0521 584.573 84.9271 586.5 81.75C588.427 78.5729 590.693 75.4479 593.297 72.375C595.901 69.3021 598.714 66.5677 601.734 64.1719C604.807 61.776 607.984 59.849 611.266 58.3906C614.599 56.9323 617.958 56.2031 621.344 56.2031C622.49 56.2031 623.557 56.3333 624.547 56.5938C625.589 56.8542 626.474 57.2708 627.203 57.8438C627.984 58.3646 628.583 59.0938 629 60.0312C629.469 60.9688 629.703 62.0885 629.703 63.3906ZM668.375 66.9062C668.115 66.8542 667.88 66.8281 667.672 66.8281C667.464 66.8281 667.229 66.8281 666.969 66.8281C664.99 66.8281 663.141 67.2188 661.422 68C659.703 68.7812 658.115 69.8229 656.656 71.125C655.25 72.375 653.974 73.8073 652.828 75.4219C651.734 77.0365 650.745 78.651 649.859 80.2656C648.974 81.8281 648.219 83.3385 647.594 84.7969C647.021 86.2552 646.578 87.4792 646.266 88.4688C648.089 87.5312 649.964 86.4635 651.891 85.2656C653.87 84.0677 655.719 82.9219 657.438 81.8281C659.156 80.7344 660.641 79.7448 661.891 78.8594C663.193 77.974 664.104 77.375 664.625 77.0625C666.969 75.6042 668.583 74.25 669.469 73C670.354 71.6979 670.797 70.5781 670.797 69.6406C670.797 68.8594 670.536 68.2344 670.016 67.7656C669.547 67.2969 669 67.0104 668.375 66.9062ZM671.188 56.125C675.51 56.125 678.74 57.1667 680.875 59.25C683.01 61.3333 684.078 64.224 684.078 67.9219C684.078 70.1094 683.505 72.401 682.359 74.7969C681.214 77.1927 679.234 79.6406 676.422 82.1406C673.609 84.5885 669.833 87.1146 665.094 89.7188C660.406 92.2708 654.521 94.849 647.438 97.4531C647.698 98.9635 648.505 100.161 649.859 101.047C651.214 101.88 653.01 102.297 655.25 102.297C657.646 102.297 660.198 101.958 662.906 101.281C665.667 100.552 668.375 99.6406 671.031 98.5469C673.74 97.4531 676.37 96.2812 678.922 95.0312C681.474 93.7292 683.766 92.5052 685.797 91.3594C687.88 90.2135 689.599 89.224 690.953 88.3906C692.359 87.5573 693.297 87.0365 693.766 86.8281C694.234 86.5156 694.651 86.3333 695.016 86.2812C695.432 86.2292 695.797 86.2031 696.109 86.2031C696.734 86.2031 697.255 86.3594 697.672 86.6719C698.089 86.9323 698.427 87.2708 698.688 87.6875C699 88.0521 699.208 88.4688 699.312 88.9375C699.417 89.3542 699.469 89.7188 699.469 90.0312C699.469 90.5 699.417 91.0729 699.312 91.75C699.208 92.375 698.818 93.1042 698.141 93.9375C697.88 94.1979 696.995 94.901 695.484 96.0469C694.026 97.1927 692.125 98.5469 689.781 100.109C687.438 101.672 684.703 103.339 681.578 105.109C678.505 106.828 675.224 108.417 671.734 109.875C668.297 111.333 664.703 112.531 660.953 113.469C657.203 114.458 653.505 114.953 649.859 114.953C646.734 114.953 643.948 114.354 641.5 113.156C639.104 111.958 637.047 110.344 635.328 108.312C633.661 106.281 632.385 103.938 631.5 101.281C630.615 98.625 630.172 95.8385 630.172 92.9219C630.172 90.6823 630.615 88.2344 631.5 85.5781C632.385 82.8698 633.661 80.1615 635.328 77.4531C636.995 74.7448 639.026 72.1146 641.422 69.5625C643.87 66.9583 646.604 64.6667 649.625 62.6875C652.646 60.7083 655.953 59.1198 659.547 57.9219C663.193 56.724 667.073 56.125 671.188 56.125ZM713.531 69.0156C716.708 70.6823 719.547 72.5833 722.047 74.7188C724.547 76.8542 726.656 79.1198 728.375 81.5156C730.146 83.8594 731.474 86.2552 732.359 88.7031C733.297 91.151 733.766 93.5469 733.766 95.8906C733.766 98.8594 732.906 101.542 731.188 103.938C729.521 106.281 727.307 108.286 724.547 109.953C721.839 111.568 718.714 112.792 715.172 113.625C711.682 114.51 708.141 114.953 704.547 114.953C701.839 114.953 699.208 114.641 696.656 114.016C694.104 113.443 691.76 112.531 689.625 111.281C687.542 110.031 685.745 108.443 684.234 106.516C682.724 104.536 681.656 102.193 681.031 99.4844C680.927 99.0677 680.875 98.7292 680.875 98.4688C680.875 97.0625 681.37 95.8646 682.359 94.875C683.349 93.8333 684.443 93.3125 685.641 93.3125C686.214 93.3125 686.839 93.4167 687.516 93.625C688.245 93.8333 688.792 94.3021 689.156 95.0312C689.833 96.2812 690.771 97.401 691.969 98.3906C693.219 99.3802 694.599 100.24 696.109 100.969C697.62 101.646 699.208 102.193 700.875 102.609C702.594 102.974 704.26 103.156 705.875 103.156C707.542 103.156 709.13 103 710.641 102.688C712.203 102.375 713.557 101.88 714.703 101.203C715.901 100.526 716.839 99.6667 717.516 98.625C718.193 97.5833 718.531 96.3073 718.531 94.7969C718.531 92.1406 717.932 89.6927 716.734 87.4531C715.536 85.2135 713.974 83.1562 712.047 81.2812C710.172 79.3542 708.01 77.5833 705.562 75.9688C703.167 74.3021 700.771 72.7135 698.375 71.2031C698.115 71.0469 697.724 70.6042 697.203 69.875C696.682 69.0938 696.422 68.3125 696.422 67.5312C696.422 66.9062 696.578 66.4115 696.891 66.0469C697.724 64.9531 698.688 63.8333 699.781 62.6875C700.875 61.5417 702.047 60.5 703.297 59.5625C704.547 58.5729 705.901 57.7917 707.359 57.2188C708.818 56.5938 710.328 56.2812 711.891 56.2812C713.036 56.2812 714.104 56.4375 715.094 56.75C716.083 57.0625 716.917 57.4792 717.594 58C718.271 58.4688 718.792 59.0156 719.156 59.6406C719.573 60.2135 719.781 60.7604 719.781 61.2812C719.781 62.0104 719.599 62.7135 719.234 63.3906C718.87 64.0677 718.375 64.7188 717.75 65.3438C717.177 65.9688 716.5 66.5938 715.719 67.2188C714.99 67.8438 714.26 68.4427 713.531 69.0156Z" fill="white"/>
</svg>
