<svg width="222" height="85" viewBox="0 0 222 85" fill="none" xmlns="http://www.w3.org/2000/svg">
<rect x="32.9375" y="30.0005" width="189" height="55" rx="10" fill="black"/>
<path d="M63.3281 65.0005V49.0005H66.7109V55.6021H73.5781V49.0005H76.9531V65.0005H73.5781V58.3911H66.7109V65.0005H63.3281ZM83.1016 65.2271C82.3359 65.2271 81.6536 65.0942 81.0547 64.8286C80.4557 64.5578 79.9818 64.1593 79.6328 63.6333C79.2891 63.1021 79.1172 62.4406 79.1172 61.6489C79.1172 60.9823 79.2396 60.4224 79.4844 59.9692C79.7292 59.5161 80.0625 59.1515 80.4844 58.8755C80.9063 58.5994 81.3854 58.3911 81.9219 58.2505C82.4635 58.1099 83.0313 58.0109 83.625 57.9536C84.3229 57.8807 84.8854 57.813 85.3125 57.7505C85.7396 57.6828 86.0495 57.5838 86.2422 57.4536C86.4349 57.3234 86.5313 57.1307 86.5313 56.8755V56.8286C86.5313 56.3338 86.375 55.951 86.0625 55.6802C85.7552 55.4093 85.3177 55.2739 84.75 55.2739C84.151 55.2739 83.6745 55.4067 83.3203 55.6724C82.9661 55.9328 82.7318 56.2609 82.6172 56.6567L79.5391 56.4067C79.6953 55.6776 80.0026 55.0474 80.4609 54.5161C80.9193 53.9797 81.5104 53.5682 82.2344 53.2817C82.9635 52.9901 83.8073 52.8442 84.7656 52.8442C85.4323 52.8442 86.0703 52.9224 86.6797 53.0786C87.2943 53.2349 87.8385 53.4771 88.3125 53.8052C88.7917 54.1333 89.1693 54.5552 89.4453 55.0708C89.7214 55.5812 89.8594 56.1932 89.8594 56.9067V65.0005H86.7031V63.3364H86.6094C86.4167 63.7114 86.1589 64.0422 85.8359 64.3286C85.513 64.6099 85.125 64.8312 84.6719 64.9927C84.2188 65.1489 83.6953 65.2271 83.1016 65.2271ZM84.0547 62.9302C84.5443 62.9302 84.9766 62.8338 85.3516 62.6411C85.7266 62.4432 86.0208 62.1776 86.2344 61.8442C86.4479 61.5109 86.5547 61.1333 86.5547 60.7114V59.438C86.4505 59.5057 86.3073 59.5682 86.125 59.6255C85.9479 59.6776 85.7474 59.7271 85.5234 59.7739C85.2995 59.8156 85.0755 59.8547 84.8516 59.8911C84.6276 59.9224 84.4245 59.951 84.2422 59.9771C83.8516 60.0343 83.5104 60.1255 83.2188 60.2505C82.9271 60.3755 82.7005 60.5448 82.5391 60.7583C82.3776 60.9666 82.2969 61.2271 82.2969 61.5396C82.2969 61.9927 82.4609 62.339 82.7891 62.5786C83.1224 62.813 83.5443 62.9302 84.0547 62.9302ZM103.199 53.0005L99.0039 65.0005H95.2539L91.0586 53.0005H94.5742L97.0664 61.5864H97.1914L99.6758 53.0005H103.199ZM109.984 65.2349C108.75 65.2349 107.688 64.9849 106.797 64.4849C105.911 63.9797 105.229 63.2661 104.75 62.3442C104.271 61.4172 104.031 60.3208 104.031 59.0552C104.031 57.8208 104.271 56.7375 104.75 55.8052C105.229 54.8729 105.904 54.1463 106.773 53.6255C107.648 53.1047 108.674 52.8442 109.852 52.8442C110.643 52.8442 111.38 52.9718 112.063 53.2271C112.75 53.4771 113.349 53.8547 113.859 54.3599C114.375 54.8651 114.776 55.5005 115.063 56.2661C115.349 57.0265 115.492 57.9172 115.492 58.938V59.8521H105.359V57.7896H112.359C112.359 57.3104 112.255 56.8859 112.047 56.5161C111.839 56.1463 111.549 55.8573 111.18 55.6489C110.815 55.4354 110.391 55.3286 109.906 55.3286C109.401 55.3286 108.953 55.4458 108.563 55.6802C108.177 55.9093 107.875 56.2192 107.656 56.6099C107.438 56.9953 107.326 57.425 107.32 57.8989V59.8599C107.32 60.4536 107.43 60.9666 107.648 61.3989C107.872 61.8312 108.188 62.1646 108.594 62.3989C109 62.6333 109.482 62.7505 110.039 62.7505C110.409 62.7505 110.747 62.6984 111.055 62.5942C111.362 62.4901 111.625 62.3338 111.844 62.1255C112.063 61.9172 112.229 61.6619 112.344 61.3599L115.422 61.563C115.266 62.3026 114.945 62.9484 114.461 63.5005C113.982 64.0474 113.362 64.4744 112.602 64.7817C111.846 65.0838 110.974 65.2349 109.984 65.2349ZM126.178 65.2271C125.412 65.2271 124.73 65.0942 124.131 64.8286C123.532 64.5578 123.058 64.1593 122.709 63.6333C122.365 63.1021 122.193 62.4406 122.193 61.6489C122.193 60.9823 122.316 60.4224 122.561 59.9692C122.805 59.5161 123.139 59.1515 123.561 58.8755C123.982 58.5994 124.462 58.3911 124.998 58.2505C125.54 58.1099 126.107 58.0109 126.701 57.9536C127.399 57.8807 127.962 57.813 128.389 57.7505C128.816 57.6828 129.126 57.5838 129.318 57.4536C129.511 57.3234 129.607 57.1307 129.607 56.8755V56.8286C129.607 56.3338 129.451 55.951 129.139 55.6802C128.831 55.4093 128.394 55.2739 127.826 55.2739C127.227 55.2739 126.751 55.4067 126.396 55.6724C126.042 55.9328 125.808 56.2609 125.693 56.6567L122.615 56.4067C122.771 55.6776 123.079 55.0474 123.537 54.5161C123.995 53.9797 124.587 53.5682 125.311 53.2817C126.04 52.9901 126.883 52.8442 127.842 52.8442C128.508 52.8442 129.146 52.9224 129.756 53.0786C130.37 53.2349 130.915 53.4771 131.389 53.8052C131.868 54.1333 132.245 54.5552 132.521 55.0708C132.798 55.5812 132.936 56.1932 132.936 56.9067V65.0005H129.779V63.3364H129.686C129.493 63.7114 129.235 64.0422 128.912 64.3286C128.589 64.6099 128.201 64.8312 127.748 64.9927C127.295 65.1489 126.771 65.2271 126.178 65.2271ZM127.131 62.9302C127.62 62.9302 128.053 62.8338 128.428 62.6411C128.803 62.4432 129.097 62.1776 129.311 61.8442C129.524 61.5109 129.631 61.1333 129.631 60.7114V59.438C129.527 59.5057 129.383 59.5682 129.201 59.6255C129.024 59.6776 128.824 59.7271 128.6 59.7739C128.376 59.8156 128.152 59.8547 127.928 59.8911C127.704 59.9224 127.501 59.951 127.318 59.9771C126.928 60.0343 126.587 60.1255 126.295 60.2505C126.003 60.3755 125.777 60.5448 125.615 60.7583C125.454 60.9666 125.373 61.2271 125.373 61.5396C125.373 61.9927 125.537 62.339 125.865 62.5786C126.199 62.813 126.62 62.9302 127.131 62.9302ZM143.938 49.0005V65.0005H140.609V49.0005H143.938ZM152.025 65.2349C150.812 65.2349 149.762 64.9771 148.877 64.4614C147.997 63.9406 147.317 63.2166 146.838 62.2896C146.359 61.3573 146.119 60.2765 146.119 59.0474C146.119 57.8078 146.359 56.7244 146.838 55.7974C147.317 54.8651 147.997 54.1411 148.877 53.6255C149.762 53.1047 150.812 52.8442 152.025 52.8442C153.239 52.8442 154.286 53.1047 155.166 53.6255C156.051 54.1411 156.734 54.8651 157.213 55.7974C157.692 56.7244 157.932 57.8078 157.932 59.0474C157.932 60.2765 157.692 61.3573 157.213 62.2896C156.734 63.2166 156.051 63.9406 155.166 64.4614C154.286 64.9771 153.239 65.2349 152.025 65.2349ZM152.041 62.6567C152.593 62.6567 153.054 62.5005 153.424 62.188C153.794 61.8703 154.072 61.438 154.26 60.8911C154.452 60.3442 154.549 59.7218 154.549 59.0239C154.549 58.326 154.452 57.7036 154.26 57.1567C154.072 56.6099 153.794 56.1776 153.424 55.8599C153.054 55.5422 152.593 55.3833 152.041 55.3833C151.484 55.3833 151.015 55.5422 150.635 55.8599C150.26 56.1776 149.976 56.6099 149.783 57.1567C149.596 57.7036 149.502 58.326 149.502 59.0239C149.502 59.7218 149.596 60.3442 149.783 60.8911C149.976 61.438 150.26 61.8703 150.635 62.188C151.015 62.5005 151.484 62.6567 152.041 62.6567ZM165.518 65.2349C164.304 65.2349 163.255 64.9771 162.369 64.4614C161.489 63.9406 160.809 63.2166 160.33 62.2896C159.851 61.3573 159.611 60.2765 159.611 59.0474C159.611 57.8078 159.851 56.7244 160.33 55.7974C160.809 54.8651 161.489 54.1411 162.369 53.6255C163.255 53.1047 164.304 52.8442 165.518 52.8442C166.731 52.8442 167.778 53.1047 168.658 53.6255C169.544 54.1411 170.226 54.8651 170.705 55.7974C171.184 56.7244 171.424 57.8078 171.424 59.0474C171.424 60.2765 171.184 61.3573 170.705 62.2896C170.226 63.2166 169.544 63.9406 168.658 64.4614C167.778 64.9771 166.731 65.2349 165.518 65.2349ZM165.533 62.6567C166.085 62.6567 166.546 62.5005 166.916 62.188C167.286 61.8703 167.564 61.438 167.752 60.8911C167.945 60.3442 168.041 59.7218 168.041 59.0239C168.041 58.326 167.945 57.7036 167.752 57.1567C167.564 56.6099 167.286 56.1776 166.916 55.8599C166.546 55.5422 166.085 55.3833 165.533 55.3833C164.976 55.3833 164.507 55.5422 164.127 55.8599C163.752 56.1776 163.468 56.6099 163.275 57.1567C163.088 57.7036 162.994 58.326 162.994 59.0239C162.994 59.7218 163.088 60.3442 163.275 60.8911C163.468 61.438 163.752 61.8703 164.127 62.188C164.507 62.5005 164.976 62.6567 165.533 62.6567ZM176.604 61.5474L176.611 57.5552H177.096L180.939 53.0005H184.76L179.596 59.0317H178.807L176.604 61.5474ZM173.588 65.0005V49.0005H176.916V65.0005H173.588ZM181.088 65.0005L177.557 59.7739L179.775 57.4224L184.986 65.0005H181.088ZM190.369 49.0005L190.064 60.2036H187.205L186.893 49.0005H190.369ZM188.635 65.2036C188.119 65.2036 187.676 65.0213 187.307 64.6567C186.937 64.2869 186.755 63.8442 186.76 63.3286C186.755 62.8182 186.937 62.3807 187.307 62.0161C187.676 61.6515 188.119 61.4692 188.635 61.4692C189.13 61.4692 189.564 61.6515 189.939 62.0161C190.314 62.3807 190.505 62.8182 190.51 63.3286C190.505 63.6724 190.413 63.9875 190.236 64.2739C190.064 64.5552 189.838 64.7817 189.557 64.9536C189.275 65.1203 188.968 65.2036 188.635 65.2036Z" fill="white"/>
<path d="M40.9386 10.2799C40.9386 5.48412 41.6497 -0.000189606 43.7396 -0.000189606C45.8295 -0.000189606 46.8555 5.42602 46.8555 10.2218C46.8555 15.0176 46.0636 18.9419 43.9737 18.9419C41.8838 18.9419 40.9386 15.0757 40.9386 10.2799Z" fill="black"/>
<path d="M8.66196 45.7281C13.4578 45.7281 18.9421 46.4393 18.9421 48.5292C18.9421 50.6191 13.5159 51.645 8.72006 51.645C3.92425 51.645 0 50.8531 0 48.7632C0 46.6734 3.86615 45.7281 8.66196 45.7281Z" fill="black"/>
<path d="M15.2068 23.4539C11.8157 20.0628 8.44054 15.682 9.91832 14.2042C11.3961 12.7264 15.9585 15.8379 19.3496 19.229C22.7408 22.6202 24.9557 25.955 23.4779 27.4327C22.0001 28.9105 18.598 26.8451 15.2068 23.4539Z" fill="black"/>
</svg>
