<svg width="183" height="50" viewBox="0 0 183 50" fill="none" xmlns="http://www.w3.org/2000/svg">
<rect width="164" height="36" transform="translate(10 7)" fill="black"/>
<path d="M66.2554 19.4852C66.1654 18.7256 65.8006 18.1358 65.1609 17.716C64.5211 17.2962 63.7365 17.0863 62.8069 17.0863C62.1272 17.0863 61.5325 17.1962 61.0227 17.4161C60.518 17.636 60.1231 17.9384 59.8383 18.3232C59.5584 18.7081 59.4185 19.1454 59.4185 19.6351C59.4185 20.045 59.5159 20.3973 59.7108 20.6922C59.9107 20.982 60.1656 21.2244 60.4755 21.4193C60.7853 21.6092 61.1102 21.7667 61.45 21.8916C61.7899 22.0116 62.1022 22.109 62.3871 22.184L63.9464 22.6038C64.3462 22.7088 64.791 22.8537 65.2808 23.0386C65.7756 23.2235 66.2479 23.4759 66.6977 23.7958C67.1525 24.1106 67.5273 24.5154 67.8222 25.0102C68.117 25.505 68.2645 26.1122 68.2645 26.8319C68.2645 27.6615 68.0471 28.4112 67.6122 29.0809C67.1824 29.7506 66.5527 30.2828 65.7231 30.6776C64.8985 31.0725 63.8964 31.2699 62.717 31.2699C61.6175 31.2699 60.6654 31.0925 59.8608 30.7376C59.0611 30.3828 58.4314 29.888 57.9716 29.2533C57.5168 28.6186 57.2594 27.8814 57.1995 27.0418H59.1186C59.1686 27.6215 59.3635 28.1013 59.7033 28.4811C60.0482 28.856 60.483 29.1358 61.0077 29.3208C61.5375 29.5007 62.1072 29.5906 62.717 29.5906C63.4266 29.5906 64.0639 29.4757 64.6286 29.2458C65.1933 29.0109 65.6406 28.686 65.9705 28.2712C66.3003 27.8514 66.4653 27.3616 66.4653 26.8019C66.4653 26.2921 66.3228 25.8773 66.038 25.5575C65.7531 25.2376 65.3783 24.9777 64.9135 24.7778C64.4487 24.5779 63.9464 24.403 63.4066 24.2531L61.5175 23.7133C60.318 23.3685 59.3685 22.8762 58.6688 22.2365C57.9691 21.5968 57.6193 20.7596 57.6193 19.7251C57.6193 18.8655 57.8517 18.1158 58.3165 17.4761C58.7862 16.8314 59.416 16.3316 60.2056 15.9768C61.0002 15.617 61.8873 15.437 62.8669 15.437C63.8564 15.437 64.736 15.6145 65.5057 15.9693C66.2754 16.3191 66.8851 16.7989 67.3349 17.4086C67.7897 18.0184 68.0296 18.7106 68.0545 19.4852H66.2554ZM78.338 26.2921V19.4852H80.1072V31H78.338V29.0509H78.2181C77.9482 29.6356 77.5284 30.1329 76.9586 30.5427C76.3889 30.9475 75.6692 31.1499 74.7996 31.1499C74.0799 31.1499 73.4402 30.9925 72.8805 30.6776C72.3207 30.3578 71.8809 29.878 71.5611 29.2383C71.2412 28.5936 71.0813 27.7815 71.0813 26.8019V19.4852H72.8505V26.682C72.8505 27.5216 73.0854 28.1913 73.5552 28.691C74.03 29.1908 74.6347 29.4407 75.3694 29.4407C75.8092 29.4407 76.2565 29.3283 76.7113 29.1034C77.171 28.8785 77.5559 28.5336 77.8657 28.0688C78.1806 27.604 78.338 27.0118 78.338 26.2921ZM83.5875 31V15.6469H85.3567V21.3144H85.5066C85.6366 21.1145 85.8165 20.8596 86.0464 20.5497C86.2813 20.2349 86.6161 19.955 87.051 19.7101C87.4908 19.4602 88.0855 19.3353 88.8351 19.3353C89.8047 19.3353 90.6593 19.5777 91.399 20.0624C92.1386 20.5472 92.7159 21.2344 93.1307 22.124C93.5455 23.0136 93.7529 24.0631 93.7529 25.2726C93.7529 26.492 93.5455 27.5491 93.1307 28.4437C92.7159 29.3333 92.1411 30.0229 91.4065 30.5127C90.6718 30.9975 89.8247 31.2399 88.8651 31.2399C88.1255 31.2399 87.5332 31.1174 87.0884 30.8726C86.6436 30.6227 86.3013 30.3403 86.0614 30.0254C85.8215 29.7056 85.6366 29.4407 85.5066 29.2308H85.2967V31H83.5875ZM85.3267 25.2426C85.3267 26.1122 85.4542 26.8794 85.7091 27.5441C85.9639 28.2038 86.3363 28.721 86.8261 29.0959C87.3158 29.4657 87.9156 29.6506 88.6252 29.6506C89.3649 29.6506 89.9821 29.4557 90.4769 29.0659C90.9767 28.6711 91.3515 28.1413 91.6014 27.4766C91.8563 26.8069 91.9837 26.0622 91.9837 25.2426C91.9837 24.433 91.8588 23.7033 91.6089 23.0536C91.364 22.3989 90.9917 21.8816 90.4919 21.5018C89.9971 21.117 89.3749 20.9246 88.6252 20.9246C87.9056 20.9246 87.3008 21.107 86.8111 21.4718C86.3213 21.8316 85.9514 22.3364 85.7016 22.9861C85.4517 23.6308 85.3267 24.383 85.3267 25.2426ZM96.4592 31V19.4852H98.1684V21.2844H98.3184C98.5582 20.6697 98.9456 20.1924 99.4803 19.8525C100.015 19.5077 100.657 19.3353 101.407 19.3353C102.167 19.3353 102.799 19.5077 103.304 19.8525C103.813 20.1924 104.211 20.6697 104.496 21.2844H104.616C104.91 20.6897 105.353 20.2174 105.942 19.8675C106.532 19.5127 107.239 19.3353 108.064 19.3353C109.093 19.3353 109.936 19.6576 110.59 20.3023C111.245 20.9421 111.572 21.9391 111.572 23.2935V31H109.803V23.2935C109.803 22.4439 109.571 21.8366 109.106 21.4718C108.641 21.107 108.094 20.9246 107.464 20.9246C106.655 20.9246 106.027 21.1694 105.583 21.6592C105.138 22.144 104.915 22.7587 104.915 23.5034V31H103.116V23.1136C103.116 22.4589 102.904 21.9316 102.479 21.5318C102.054 21.127 101.507 20.9246 100.837 20.9246C100.377 20.9246 99.9476 21.047 99.5478 21.2919C99.153 21.5368 98.8331 21.8766 98.5882 22.3114C98.3483 22.7412 98.2284 23.2385 98.2284 23.8033V31H96.4592ZM114.807 31V19.4852H116.576V31H114.807ZM115.707 17.5661C115.362 17.5661 115.065 17.4486 114.815 17.2137C114.57 16.9788 114.447 16.6965 114.447 16.3666C114.447 16.0368 114.57 15.7544 114.815 15.5195C115.065 15.2846 115.362 15.1672 115.707 15.1672C116.052 15.1672 116.346 15.2846 116.591 15.5195C116.841 15.7544 116.966 16.0368 116.966 16.3666C116.966 16.6965 116.841 16.9788 116.591 17.2137C116.346 17.4486 116.052 17.5661 115.707 17.5661ZM124.824 19.4852V20.9845H118.857V19.4852H124.824ZM120.596 16.7265H122.366V27.7015C122.366 28.2013 122.438 28.5761 122.583 28.826C122.733 29.0709 122.923 29.2358 123.153 29.3208C123.388 29.4007 123.635 29.4407 123.895 29.4407C124.09 29.4407 124.25 29.4307 124.375 29.4107C124.5 29.3857 124.6 29.3657 124.675 29.3507L125.034 30.94C124.914 30.985 124.747 31.03 124.532 31.075C124.317 31.1249 124.045 31.1499 123.715 31.1499C123.215 31.1499 122.725 31.0425 122.246 30.8276C121.771 30.6127 121.376 30.2853 121.061 29.8455C120.751 29.4057 120.596 28.851 120.596 28.1813V16.7265Z" fill="#D9D3C5"/>
<rect x="0.776119" y="0.776119" width="181.448" height="48.4478" stroke="#101622" stroke-width="1.55224"/>
</svg>
